<?xml version="1.0" encoding="UTF-8"?>
<svg version="1.1" xmlns="http://www.w3.org/2000/svg" width="232" height="255">
<path d="M0 0 C7.87294992 5.85888812 13.99221002 12.45343481 19.26025391 20.78369141 C19.82486328 21.65251953 20.38947266 22.52134766 20.97119141 23.41650391 C22.26025391 25.78369141 22.26025391 25.78369141 22.26025391 28.78369141 C18.73744721 27.27849218 16.48288465 25.20186954 13.76025391 22.53369141 C2.73885502 12.51130821 -11.2351048 8.06001949 -26.09130859 8.56103516 C-38.9761049 9.64427024 -49.67500154 13.52856759 -59.73974609 21.78369141 C-60.23474609 22.77369141 -60.23474609 22.77369141 -60.73974609 23.78369141 C-59.97533203 23.42275391 -59.21091797 23.06181641 -58.42333984 22.68994141 C-47.69034699 18.04026941 -36.4230623 16.57838194 -25.13818359 20.62744141 C-14.51353351 25.74942255 -6.21011229 34.06598079 -1.80224609 45.09619141 C0.01543897 51.40462782 0.26025391 56.04598529 0.26025391 62.78369141 C9.50025391 62.78369141 18.74025391 62.78369141 28.26025391 62.78369141 C28.26025391 83.28972324 16.36718436 98.71408322 2.56938171 112.63485718 C-1.70510921 116.90911335 -6.00080528 121.16157874 -10.30224609 125.40869141 C-12.95424659 128.0330794 -15.60475059 130.65893781 -18.25242615 133.28768921 C-19.89118062 134.91416795 -21.53260048 136.53796634 -23.17689514 138.15884399 C-23.90863449 138.88405243 -24.64037384 139.60926086 -25.39428711 140.35644531 C-26.04220718 140.99611237 -26.69012726 141.63577942 -27.35768127 142.29483032 C-28.85313483 143.56726615 -28.85313483 143.56726615 -28.73974609 144.78369141 C-26.96470703 144.85716797 -26.96470703 144.85716797 -25.15380859 144.93212891 C-3.53915505 145.91741877 -3.53915505 145.91741877 2.26025391 149.78369141 C1.26025391 152.78369141 1.26025391 152.78369141 -0.92724609 153.90869141 C-24.14366347 161.13157681 -59.68141192 159.72739431 -82.73974609 152.78369141 C-82.73974609 151.46369141 -82.73974609 150.14369141 -82.73974609 148.78369141 C-74.92356236 146.38913801 -67.47846892 145.37581943 -59.35327148 145.07495117 C-55.41787103 145.01003057 -55.41787103 145.01003057 -51.73974609 143.78369141 C-52.22532486 143.30255386 -52.71090363 142.82141632 -53.2111969 142.32569885 C-58.29531995 137.28605775 -63.37220247 132.23920419 -68.44506836 127.18823242 C-70.33495243 125.30722673 -72.22769614 123.4292354 -74.12182617 121.55249023 C-76.85476206 118.8440005 -79.58102493 116.12894105 -82.30615234 113.41259766 C-83.14497452 112.58409805 -83.98379669 111.75559845 -84.84803772 110.9019928 C-95.04527128 100.70668403 -95.04527128 100.70668403 -98.73974609 94.78369141 C-98.73974609 93.79369141 -98.73974609 92.80369141 -98.73974609 91.78369141 C-95.60513201 93.226609 -93.04415429 95.01086156 -90.30224609 97.09619141 C-77.353246 106.28518555 -61.84322369 108.67790654 -46.34521484 106.25244141 C-40.12147054 104.7823914 -34.53521041 102.44243946 -28.73974609 99.78369141 C-29.35906006 99.74405273 -29.97837402 99.70441406 -30.61645508 99.66357422 C-33.47151728 99.47091274 -36.32407064 99.25246524 -39.17724609 99.03369141 C-40.15113281 98.97181641 -41.12501953 98.90994141 -42.12841797 98.84619141 C-54.17950179 97.87888033 -63.11172807 92.81545099 -71.42724609 84.15869141 C-78.8561246 75.30183626 -80.77962721 65.01687128 -80.73974609 53.78369141 C-81.92310547 53.79529297 -83.10646484 53.80689453 -84.32568359 53.81884766 C-92.53834981 53.87442078 -100.57850003 53.83675541 -108.73974609 52.78369141 C-109.83745563 36.5924758 -101.55961432 21.35752526 -91.24755859 9.35009766 C-67.06846782 -15.39392514 -28.54689463 -19.95798892 0 0 Z " fill="#37B5FD" transform="translate(168.73974609375,60.21630859375)"/>
<path d="M0 0 C7.87294992 5.85888812 13.99221002 12.45343481 19.26025391 20.78369141 C19.82486328 21.65251953 20.38947266 22.52134766 20.97119141 23.41650391 C22.26025391 25.78369141 22.26025391 25.78369141 22.26025391 28.78369141 C18.73744721 27.27849218 16.48288465 25.20186954 13.76025391 22.53369141 C2.73885502 12.51130821 -11.2351048 8.06001949 -26.09130859 8.56103516 C-38.9761049 9.64427024 -49.67500154 13.52856759 -59.73974609 21.78369141 C-60.23474609 22.77369141 -60.23474609 22.77369141 -60.73974609 23.78369141 C-59.97533203 23.42275391 -59.21091797 23.06181641 -58.42333984 22.68994141 C-48.20046436 18.26125889 -38.15728403 16.73918922 -27.30224609 20.28369141 C-26.12662109 20.77869141 -24.95099609 21.27369141 -23.73974609 21.78369141 C-23.73974609 22.11369141 -23.73974609 22.44369141 -23.73974609 22.78369141 C-30.48974609 22.90869141 -30.48974609 22.90869141 -32.73974609 21.78369141 C-42.03667269 21.21013639 -51.93844366 21.04743962 -59.73974609 26.78369141 C-60.29662109 27.34056641 -60.85349609 27.89744141 -61.42724609 28.47119141 C-61.86037109 28.90431641 -62.29349609 29.33744141 -62.73974609 29.78369141 C-63.39974609 29.78369141 -64.05974609 29.78369141 -64.73974609 29.78369141 C-64.73974609 30.44369141 -64.73974609 31.10369141 -64.73974609 31.78369141 C-65.52349609 32.01056641 -66.30724609 32.23744141 -67.11474609 32.47119141 C-70.48456524 34.15610098 -70.45279671 35.3210691 -71.73974609 38.78369141 C-72.7955614 40.7456368 -73.85840831 42.70380995 -74.92724609 44.65869141 C-77.47990399 49.66511488 -78.44555247 52.42258566 -76.73974609 57.78369141 C-77.39974609 57.78369141 -78.05974609 57.78369141 -78.73974609 57.78369141 C-79.06974609 58.77369141 -79.39974609 59.76369141 -79.73974609 60.78369141 C-80.06974609 58.47369141 -80.39974609 56.16369141 -80.73974609 53.78369141 C-81.92310547 53.79529297 -83.10646484 53.80689453 -84.32568359 53.81884766 C-92.53834981 53.87442078 -100.57850003 53.83675541 -108.73974609 52.78369141 C-109.83745563 36.5924758 -101.55961432 21.35752526 -91.24755859 9.35009766 C-67.06846782 -15.39392514 -28.54689463 -19.95798892 0 0 Z " fill="#37B4FD" transform="translate(168.73974609375,60.21630859375)"/>
<path d="M0 0 C6.76440886 1.94687832 11.49764488 5.7445236 17 10 C17.98226562 10.72896484 17.98226562 10.72896484 18.984375 11.47265625 C25.74976211 16.79496767 30.9401815 24.46928729 35 32 C35 32.99 35 33.98 35 35 C31.4771933 33.49480077 29.22263075 31.41817813 26.5 28.75 C15.47860112 18.72761681 1.50464129 14.27632808 -13.3515625 14.77734375 C-26.23635881 15.86057884 -36.93525544 19.74487618 -47 28 C-47.33 28.66 -47.66 29.32 -48 30 C-47.23558594 29.6390625 -46.47117187 29.278125 -45.68359375 28.90625 C-35.46071827 24.47756748 -25.41753793 22.95549782 -14.5625 26.5 C-13.386875 26.995 -12.21125 27.49 -11 28 C-11 28.33 -11 28.66 -11 29 C-17.75 29.125 -17.75 29.125 -20 28 C-29.2969266 27.42644499 -39.19869757 27.26374821 -47 33 C-47.556875 33.556875 -48.11375 34.11375 -48.6875 34.6875 C-49.120625 35.120625 -49.55375 35.55375 -50 36 C-50.66 36 -51.32 36 -52 36 C-52 36.66 -52 37.32 -52 38 C-52.78375 38.226875 -53.5675 38.45375 -54.375 38.6875 C-57.76434549 40.38217274 -57.77339975 41.47352429 -59 45 C-60.58447082 47.71984003 -62.28447824 50.36123943 -64 53 C-65.37671347 48.86985958 -64.1331937 47.43686869 -62.25 43.5625 C-57.39533258 33.89363125 -50.36134818 25.59317577 -41 20 C-40.34 20 -39.68 20 -39 20 C-38.67 19.34 -38.34 18.68 -38 18 C-35.35139573 17.40644386 -32.70802678 17.25790731 -30 17 C-30 16.34 -30 15.68 -30 15 C-18.58043877 11.48628885 -7.79891429 10.82104649 3.8671875 13.5546875 C6.60240174 14.12577619 9.21691577 14.14647812 12 14 C12 13.34 12 12.68 12 12 C10.35 12 8.7 12 7 12 C7.66 10.02 8.32 8.04 9 6 C8.443125 5.938125 7.88625 5.87625 7.3125 5.8125 C4.05012827 4.66626128 2.31332126 2.50609803 0 0 Z " fill="#41A3EC" transform="translate(156,54)"/>
<path d="M0 0 C-0.33 0.66 -0.66 1.32 -1 2 C-3.50390625 2.4140625 -3.50390625 2.4140625 -6.5625 2.625 C-7.57441406 2.69976562 -8.58632812 2.77453125 -9.62890625 2.8515625 C-10.41136719 2.90054688 -11.19382812 2.94953125 -12 3 C-12.33 3.99 -12.66 4.98 -13 6 C-13.66 6 -14.32 6 -15 6 C-15 6.66 -15 7.32 -15 8 C3.48 8.33 21.96 8.66 41 9 C40.505 6.525 40.505 6.525 40 4 C39.01 3.505 39.01 3.505 38 3 C42.14327024 0.9911417 45.41538356 0.59784066 50 1 C53.4375 2.5 53.4375 2.5 56 4 C55 7 55 7 52.8125 8.125 C29.59608263 15.34788541 -5.94166583 13.9437029 -29 7 C-29 5.68 -29 4.36 -29 3 C-19.21309195 -0.16801648 -10.15176262 -0.32476018 0 0 Z " fill="#3BB3FA" transform="translate(115,206)"/>
<path d="M0 0 C0.66 0 1.32 0 2 0 C2.07418046 4.35990873 2.12861544 8.71948279 2.16479492 13.07983398 C2.17987768 14.56297199 2.20034689 16.04606544 2.22631836 17.52905273 C2.26272616 19.66140745 2.27973073 21.79317235 2.29296875 23.92578125 C2.3086792 25.20880127 2.32438965 26.49182129 2.34057617 27.8137207 C2 31 2 31 0.75976562 32.92382812 C-1.46772988 34.28603681 -2.84650478 34.34537239 -5.44921875 34.29296875 C-6.29677734 34.28330078 -7.14433594 34.27363281 -8.01757812 34.26367188 C-8.89865234 34.23853516 -9.77972656 34.21339844 -10.6875 34.1875 C-11.58017578 34.17396484 -12.47285156 34.16042969 -13.39257812 34.14648438 C-15.59566166 34.11114079 -17.79752582 34.06180493 -20 34 C-18.41987986 30.50116255 -17.39126684 29.69563342 -14 28 C-13.31513275 26.67592331 -12.65129797 25.34090759 -12 24 C-11.236875 23.360625 -10.47375 22.72125 -9.6875 22.0625 C-4.05240611 16.72749986 -2.36568635 7.16187236 0 0 Z " fill="#F9FEFD" transform="translate(166,124)"/>
<path d="M0 0 C3.13461408 1.44291759 5.6955918 3.22717015 8.4375 5.3125 C20.64523144 13.97546794 34.33119898 16.14384874 49 15 C52.2938741 14.38619031 55.43562485 13.6122828 58.64453125 12.65625 C61 12 61 12 64 12 C63.67 12.99 63.34 13.98 63 15 C52.32221195 19.65289088 33.12807565 21.32626529 22 18 C22 19.98 22 21.96 22 24 C22.99 23.67 23.98 23.34 25 23 C25.66 24.65 26.32 26.3 27 28 C26.34 28.66 25.68 29.32 25 30 C22.13721333 27.19616506 19.28646261 24.38037495 16.4375 21.5625 C15.63763672 20.77939453 14.83777344 19.99628906 14.01367188 19.18945312 C3.73299641 8.99270154 3.73299641 8.99270154 0 3 C0 2.01 0 1.02 0 0 Z " fill="#38B2F8" transform="translate(70,152)"/>
<path d="M0 0 C0.99 0.33 1.98 0.66 3 1 C4.1577506 4.47325181 4.06866652 7.36067448 4 11 C7.63 11.66 11.26 12.32 15 13 C15 13.99 15 14.98 15 16 C11.17679443 17.42258812 8.08718695 18.24042276 4 18 C4.04125 19.0725 4.0825 20.145 4.125 21.25 C4.0114175 24.65747485 3.78726636 26.20739631 2 29 C1.34 29 0.68 29 0 29 C-1.51059728 24.9402698 -2 22.45389333 -2 18 C-5.3 17.67 -8.6 17.34 -12 17 C-12.33 15.68 -12.66 14.36 -13 13 C-9.37 12.01 -5.74 11.02 -2 10 C-1.34 6.7 -0.68 3.4 0 0 Z " fill="#39AFF5" transform="translate(73,31)"/>
<path d="M0 0 C0 0.66 0 1.32 0 2 C-3.78166981 1.51723364 -7.42433066 0.91661681 -11.125 0 C-20.34968855 -2.10082804 -29.92737159 -3.02420947 -39 0 C-39.33 0.66 -39.66 1.32 -40 2 C-40.99 1.34 -41.98 0.68 -43 0 C-45.67560213 0.28667166 -47.72412551 1.32656641 -50.1875 2.4375 C-54.3189814 4.26972218 -58.57796829 5.14768096 -63 6 C-47.31915246 -7.62291746 -18.43488667 -9.21744333 0 0 Z " fill="#3FA8F1" transform="translate(155,53)"/>
<path d="M0 0 C0.66 0 1.32 0 2 0 C2.07418046 4.35990873 2.12861544 8.71948279 2.16479492 13.07983398 C2.17987768 14.56297199 2.20034689 16.04606544 2.22631836 17.52905273 C2.26272616 19.66140745 2.27973073 21.79317235 2.29296875 23.92578125 C2.3086792 25.20880127 2.32438965 26.49182129 2.34057617 27.8137207 C2 31 2 31 0.75976562 32.92382812 C-1.46772988 34.28603681 -2.84650478 34.34537239 -5.44921875 34.29296875 C-6.29677734 34.28330078 -7.14433594 34.27363281 -8.01757812 34.26367188 C-8.89865234 34.23853516 -9.77972656 34.21339844 -10.6875 34.1875 C-11.58017578 34.17396484 -12.47285156 34.16042969 -13.39257812 34.14648438 C-15.59566166 34.11114079 -17.79752582 34.06180493 -20 34 C-18.41987986 30.50116255 -17.39126684 29.69563342 -14 28 C-13.31513275 26.67592331 -12.65129797 25.34090759 -12 24 C-11.236875 23.360625 -10.47375 22.72125 -9.6875 22.0625 C-4.05240611 16.72749986 -2.36568635 7.16187236 0 0 Z M-1 11 C-3.26681818 13.00985512 -3.26681818 13.00985512 -4.4375 16.5 C-6 20 -6 20 -9 22 C-9.309375 22.804375 -9.61875 23.60875 -9.9375 24.4375 C-11.18069929 27.43580417 -12.31244691 28.26099506 -15 30 C-16.32 30.99 -17.64 31.98 -19 33 C-13.39 33 -7.78 33 -2 33 C-2 32.34 -2 31.68 -2 31 C-1.34 31 -0.68 31 0 31 C0 24.4 0 17.8 0 11 C-0.33 11 -0.66 11 -1 11 Z " fill="#BBE8FD" transform="translate(166,124)"/>
<path d="M0 0 C1.5 1.125 1.5 1.125 3 3 C3.1875 6.1875 3.1875 6.1875 3 9 C4.423125 8.9071875 4.423125 8.9071875 5.875 8.8125 C6.90625 8.874375 7.9375 8.93625 9 9 C9.99 10.485 9.99 10.485 11 12 C7.77208445 14.1519437 6.71599191 14.20086443 3 14 C2.67 16.64 2.34 19.28 2 22 C1.01 21.67 0.02 21.34 -1 21 C-1.2475 20.05125 -1.495 19.1025 -1.75 18.125 C-2.64895347 14.99231583 -2.64895347 14.99231583 -4.6796875 13.9375 C-6.42125761 13.21009722 -8.20947965 12.59684012 -10 12 C-10 11.34 -10 10.68 -10 10 C-7.29120665 8.64560332 -4.99066732 8.93498549 -2 9 C-1.855625 7.700625 -1.71125 6.40125 -1.5625 5.0625 C-1.125 1.125 -1.125 1.125 0 0 Z " fill="#48ADF5" transform="translate(60,63)"/>
<path d="M0 0 C6.76844198 1.9480391 11.48964704 5.75143801 17 10 C17.72445312 10.52078125 18.44890625 11.0415625 19.1953125 11.578125 C20.11957031 12.28195313 20.11957031 12.28195313 21.0625 13 C21.58972656 13.391875 22.11695313 13.78375 22.66015625 14.1875 C24 16 24 16 26 24 C20.39 21.36 14.78 18.72 9 16 C9.33 15.34 9.66 14.68 10 14 C10.66 14 11.32 14 12 14 C12 13.34 12 12.68 12 12 C10.35 12 8.7 12 7 12 C7.66 10.02 8.32 8.04 9 6 C8.443125 5.938125 7.88625 5.87625 7.3125 5.8125 C4.05012827 4.66626128 2.31332126 2.50609803 0 0 Z " fill="#38B2FA" transform="translate(156,54)"/>
<path d="M0 0 C1.32 0.33 2.64 0.66 4 1 C4.061875 1.763125 4.12375 2.52625 4.1875 3.3125 C4.76557117 6.19306482 4.76557117 6.19306482 7.375 7.75 C11.41035939 9.67159971 14.54921341 10.16509509 18.98046875 10.31640625 C20.14384766 10.35830078 21.30722656 10.40019531 22.50585938 10.44335938 C23.72080078 10.48267578 24.93574219 10.52199219 26.1875 10.5625 C27.41404297 10.60568359 28.64058594 10.64886719 29.90429688 10.69335938 C32.93608381 10.7995309 35.96795315 10.90157952 39 11 C37.56171454 14.90669429 36.11429212 17.19713709 33 20 C30.525 19.01 30.525 19.01 28 18 C29.96382007 16.49440461 31.78263366 15.10868317 34 14 C33.38068604 13.96036133 32.76137207 13.92072266 32.12329102 13.87988281 C29.26822882 13.68722133 26.41567546 13.46877384 23.5625 13.25 C22.58861328 13.188125 21.61472656 13.12625 20.61132812 13.0625 C10.74845018 12.27083087 3.78273947 8.96124726 -4 3 C-3.34 2.34 -2.68 1.68 -2 1 C-1.34 1.33 -0.68 1.66 0 2 C0 1.34 0 0.68 0 0 Z " fill="#4BADF7" transform="translate(106,146)"/>
<path d="M0 0 C9.57 0 19.14 0 29 0 C29 11.58867455 24.97862415 22.09256569 19 32 C18.01 32.495 18.01 32.495 17 33 C17 31.68 17 30.36 17 29 C17.66 29 18.32 29 19 29 C19.2165625 27.576875 19.2165625 27.576875 19.4375 26.125 C20 23 20 23 21 21 C21.66 21 22.32 21 23 21 C23.12117188 20.29875 23.24234375 19.5975 23.3671875 18.875 C23.53476563 17.92625 23.70234375 16.9775 23.875 16 C24.03742188 15.071875 24.19984375 14.14375 24.3671875 13.1875 C25.11320216 9.42979655 26.07083614 5.71665544 27 2 C13.635 2.495 13.635 2.495 0 3 C0 2.01 0 1.02 0 0 Z " fill="#4198E2" transform="translate(168,123)"/>
<path d="M0 0 C1.85625 0.6496875 1.85625 0.6496875 3.75 1.3125 C5.49735135 1.88317462 7.24759724 2.4450308 9 3 C10.33998047 3.42925781 10.33998047 3.42925781 11.70703125 3.8671875 C23.40593956 7.22802299 34.98757861 7.12921796 46.64453125 3.65625 C49 3 49 3 52 3 C51.67 3.99 51.34 4.98 51 6 C38.06647042 11.48489998 20.6571084 10.69574606 7.62890625 6.16796875 C4.91345237 4.96154868 2.44544588 3.69095259 0 2 C0 1.34 0 0.68 0 0 Z " fill="#44A3EB" transform="translate(82,161)"/>
<path d="M0 0 C1.07794075 0.48513565 1.07794075 0.48513565 2.17765808 0.98007202 C5.0429806 2.01553218 7.12902322 2.27284592 10.1574707 2.31884766 C11.65846062 2.34865219 11.65846062 2.34865219 13.18977356 2.37905884 C14.2576561 2.39061005 15.32553864 2.40216125 16.42578125 2.4140625 C17.52850876 2.43342865 18.63123627 2.4527948 19.76737976 2.4727478 C23.28234166 2.53242923 26.79733651 2.57888375 30.3125 2.625 C32.69858183 2.66319026 35.08465003 2.7022426 37.47070312 2.7421875 C43.3136809 2.83812143 49.15674106 2.92320247 55 3 C55 3.33 55 3.66 55 4 C46.56522568 4.83737357 38.22408354 5.16023022 29.75 5.125 C27.97991577 5.11992432 27.97991577 5.11992432 26.17407227 5.11474609 C13.99210916 5.04291553 1.89296316 4.94465194 -10 2 C-10 1.67 -10 1.34 -10 1 C-9.36191406 1.01160156 -8.72382812 1.02320313 -8.06640625 1.03515625 C-7.24011719 1.04417969 -6.41382812 1.05320313 -5.5625 1.0625 C-4.32693359 1.07990234 -4.32693359 1.07990234 -3.06640625 1.09765625 C-1.00836062 1.23267348 -1.00836062 1.23267348 0 0 Z " fill="#53B3FA" transform="translate(98,212)"/>
<path d="M0 0 C2 2 2 2 2.25 5.5 C2 9 2 9 0 11 C-3.73296326 11.38286803 -4.77626323 11.14915785 -8 9 C-8.40373601 5.83740129 -8.54458662 3.85987361 -6.8125 1.125 C-4.38241919 -0.38332602 -2.80984248 -0.36023622 0 0 Z " fill="#DBF6FD" transform="translate(114,113)"/>
<path d="M0 0 C2.4375 0.8125 2.4375 0.8125 4.4375 2.8125 C4.6875 5.8125 4.6875 5.8125 4.4375 8.8125 C2.4375 10.8125 2.4375 10.8125 -0.5625 11.125 C-1.5525 11.021875 -2.5425 10.91875 -3.5625 10.8125 C-5.71752531 7.57996204 -6.03106135 6.56099077 -5.5625 2.8125 C-3.86282344 0.12880016 -3.19877434 -0.23405666 0 0 Z " fill="#F3FDFD" transform="translate(145.5625,113.1875)"/>
<path d="M0 0 C6.39075249 -0.36174071 6.39075249 -0.36174071 9 1.1875 C10 3 10 3 9.8125 5.5625 C9 8 9 8 7 10 C3.26703674 10.38286803 2.22373677 10.14915785 -1 8 C-1.25660094 4.92078868 -1.39431504 2.78863007 0 0 Z " fill="#E9FAFD" transform="translate(124,114)"/>
<path d="M0 0 C9.54410287 4.19009394 15.34423391 10.73658944 20 20 C22.21175012 26.26792791 23.45285322 32.35815276 23 39 C22.67 39 22.34 39 22 39 C21.67 35.04 21.34 31.08 21 27 C20.34 27 19.68 27 19 27 C18.63648438 26.12988281 18.63648438 26.12988281 18.265625 25.2421875 C15.83352114 19.57351466 13.41362684 14.41362684 9 10 C8.175 9.154375 7.35 8.30875 6.5 7.4375 C4.2536624 5.00008339 4.2536624 5.00008339 2 4 C2 3.34 2 2.68 2 2 C1.01 1.67 0.02 1.34 -1 1 C-0.67 0.67 -0.34 0.34 0 0 Z " fill="#3FA2EB" transform="translate(146,83)"/>
<path d="M0 0 C0.66 0.33 1.32 0.66 2 1 C1.39414063 1.60062256 0.78828125 2.20124512 0.1640625 2.82006836 C-2.07425562 5.04138387 -4.31034378 7.26491289 -6.54492188 9.48999023 C-7.51407921 10.45410665 -8.48413048 11.41732529 -9.45507812 12.37963867 C-10.84737912 13.75986359 -12.2362462 15.14354978 -13.625 16.52734375 C-14.46289062 17.35999756 -15.30078125 18.19265137 -16.1640625 19.05053711 C-18.11426536 20.67501668 -18.11426536 20.67501668 -18 22 C-12.06 22.33 -6.12 22.66 0 23 C0 23.33 0 23.66 0 24 C-7.26 24 -14.52 24 -22 24 C-20.22546733 16.90186932 -14.72328518 12.29865791 -9 8 C-8.34 8 -7.68 8 -7 8 C-7 7.34 -7 6.68 -7 6 C-6.34 6 -5.68 6 -5 6 C-4.731875 5.38125 -4.46375 4.7625 -4.1875 4.125 C-3 2 -3 2 0 0 Z " fill="#47A6F0" transform="translate(158,183)"/>
<path d="M0 0 C0.66 0.66 1.32 1.32 2 2 C4.78160726 2.35585787 4.78160726 2.35585787 8.03125 2.37890625 C9.83529297 2.43014648 9.83529297 2.43014648 11.67578125 2.48242188 C12.93777344 2.50884766 14.19976562 2.53527344 15.5 2.5625 C17.98968358 2.62226258 20.47927889 2.68586604 22.96875 2.75390625 C24.07669922 2.77783447 25.18464844 2.8017627 26.32617188 2.82641602 C29 3 29 3 31 4 C31.625 7.0625 31.625 7.0625 32 10 C31.34 10 30.68 10 30 10 C29.67 10.99 29.34 11.98 29 13 C28.67 10.69 28.34 8.38 28 6 C26.81664063 6.01160156 25.63328125 6.02320312 24.4140625 6.03515625 C16.20139628 6.09072938 8.16124606 6.05306401 0 5 C0 3.35 0 1.7 0 0 Z " fill="#3FACEF" transform="translate(60,108)"/>
<path d="M0 0 C4.47049744 4.07604178 8.09689873 8.67265952 11 14 C11 14.99 11 15.98 11 17 C7.41369177 15.46654407 5.00517844 13.29624791 2.1875 10.625 C-1.69044699 7.05728877 -5.29824779 4.35087611 -10 2 C-8.4375 1.25 -8.4375 1.25 -6 1 C-3.49713591 2.13084437 -1.32992278 3.52139516 1 5 C0.67 3.35 0.34 1.7 0 0 Z " fill="#3C98E0" transform="translate(180,72)"/>
<path d="M0 0 C0.66 0.66 1.32 1.32 2 2 C4.20250992 2.46006346 4.20250992 2.46006346 6.625 2.625 C7.44226563 2.69976562 8.25953125 2.77453125 9.1015625 2.8515625 C9.72804688 2.90054688 10.35453125 2.94953125 11 3 C10.67 3.66 10.34 4.32 10 5 C7.69 5 5.38 5 3 5 C3.02320312 5.60328125 3.04640625 6.2065625 3.0703125 6.828125 C3.08835937 7.62734375 3.10640625 8.4265625 3.125 9.25 C3.14820312 10.03890625 3.17140625 10.8278125 3.1953125 11.640625 C2.9828378 14.20731941 2.28654105 15.7916067 1 18 C0.34 18 -0.32 18 -1 18 C-1.66 15.69 -2.32 13.38 -3 11 C-2.34 11 -1.68 11 -1 11 C-1.09539062 10.37351562 -1.19078125 9.74703125 -1.2890625 9.1015625 C-1.39992188 8.28429688 -1.51078125 7.46703125 -1.625 6.625 C-1.74101563 5.81289063 -1.85703125 5.00078125 -1.9765625 4.1640625 C-1.98429687 3.44992188 -1.99203125 2.73578125 -2 2 C-1.34 1.34 -0.68 0.68 0 0 Z " fill="#36B6FC" transform="translate(74,42)"/>
<path d="M0 0 C0 0.33 0 0.66 0 1 C-6.75 1.125 -6.75 1.125 -9 0 C-20.23830727 -0.69332455 -29.50932544 1.27990264 -40 5 C-30.65064188 -5.91825725 -12.04259623 -5.07056683 0 0 Z " fill="#4AA2EC" transform="translate(145,82)"/>
<path d="M0 0 C2.6875 -0.3125 2.6875 -0.3125 6 0 C8.80740885 2.24592708 10.61164156 3.89467213 11.8125 7.3125 C11.874375 7.869375 11.93625 8.42625 12 9 C13.32 9 14.64 9 16 9 C16 11.31 16 13.62 16 16 C10.35573231 11.31645873 4.9941954 6.3792354 0 1 C0 0.67 0 0.34 0 0 Z " fill="#42AEF5" transform="translate(96,182)"/>
<path d="M0 0 C0.33 0.99 0.66 1.98 1 3 C2.65 2.67 4.3 2.34 6 2 C5.67 2.66 5.34 3.32 5 4 C4.34 4 3.68 4 3 4 C3 4.66 3 5.32 3 6 C2.21625 6.226875 1.4325 6.45375 0.625 6.6875 C-2.76434549 8.38217274 -2.77339975 9.47352429 -4 13 C-5.58447082 15.71984003 -7.28447824 18.36123943 -9 21 C-10 18 -10 18 -8.671875 14.78515625 C-8.04149892 13.53903306 -7.40041235 12.29828347 -6.75 11.0625 C-6.43675781 10.44181641 -6.12351562 9.82113281 -5.80078125 9.18164062 C-4.11314551 5.89390212 -2.33093386 2.87050188 0 0 Z " fill="#30A8F1" transform="translate(101,86)"/>
<path d="M0 0 C0.66 0 1.32 0 2 0 C-2.74412347 10.24909692 -13.07436926 18.17330224 -21 26 C-21.33 25.01 -21.66 24.02 -22 23 C-20.71034824 21.62437146 -19.37310707 20.29233607 -18 19 C-17.34 19 -16.68 19 -16 19 C-15.73574219 18.39542969 -15.47148437 17.79085937 -15.19921875 17.16796875 C-13.93949085 14.89061049 -12.86140698 13.87379525 -10.8125 12.3125 C-7.03666767 9.23969921 -4.31800425 5.69270154 -1.48046875 1.7578125 C-0.99191406 1.17773438 -0.50335938 0.59765625 0 0 Z " fill="#46A2ED" transform="translate(182,157)"/>
<path d="M0 0 C3.03852705 1.40976705 5.5939595 3.08870228 8.25 5.125 C8.95640625 5.66382813 9.6628125 6.20265625 10.390625 6.7578125 C10.92171875 7.16773438 11.4528125 7.57765625 12 8 C11.01 8.33 10.02 8.66 9 9 C9 9.99 9 10.98 9 12 C10.32 12.33 11.64 12.66 13 13 C12.67 14.32 12.34 15.64 12 17 C10.56041153 15.41856529 9.12341355 13.83477221 7.6875 12.25 C6.88699219 11.36828125 6.08648437 10.4865625 5.26171875 9.578125 C0 3.58031088 0 3.58031088 0 0 Z " fill="#4B9EE6" transform="translate(70,152)"/>
<path d="M0 0 C4.46696939 1.28564758 7.72299376 2.96816369 11.4375 5.75 C12.38109375 6.45640625 13.3246875 7.1628125 14.296875 7.890625 C17.63229645 10.49341052 20.83812449 13.18944399 24 16 C23.67 16.66 23.34 17.32 23 18 C17.25 14.375 17.25 14.375 15 11 C13.34183216 10.31246699 11.67540664 9.64438717 10 9 C9.67 8.34 9.34 7.68 9 7 C7.24312198 6.00975966 5.48385766 5.02194748 3.69140625 4.09765625 C2 3 2 3 0 0 Z " fill="#3F97E0" transform="translate(156,54)"/>
<path d="M0 0 C5.61 0 11.22 0 17 0 C15.22157001 4.44607497 14.35585467 5.9797308 11 9 C8.525 8.01 8.525 8.01 6 7 C7.96382007 5.49440461 9.78263366 4.10868317 12 3 C10.26043342 1.26043342 7.8063378 1.62809614 5.4375 1.4375 C4.42558594 1.35371094 3.41367188 1.26992187 2.37109375 1.18359375 C1.19740234 1.09271484 1.19740234 1.09271484 0 1 C0 0.67 0 0.34 0 0 Z " fill="#3EA8F0" transform="translate(128,157)"/>
<path d="M0 0 C1.5 1.125 1.5 1.125 3 3 C3.1875 6.1875 3.1875 6.1875 3 9 C2.34 8.01 1.68 7.02 1 6 C0.54625 6.825 0.0925 7.65 -0.375 8.5 C-0.91125 9.325 -1.4475 10.15 -2 11 C-2.66 11 -3.32 11 -4 11 C-4 11.99 -4 12.98 -4 14 C-5.65 13.67 -7.3 13.34 -9 13 C-9.33 12.01 -9.66 11.02 -10 10 C-7.29120665 8.64560332 -4.99066732 8.93498549 -2 9 C-1.855625 7.700625 -1.71125 6.40125 -1.5625 5.0625 C-1.125 1.125 -1.125 1.125 0 0 Z " fill="#4FA4EB" transform="translate(60,63)"/>
<path d="M0 0 C0.33 0 0.66 0 1 0 C1.33 2.31 1.66 4.62 2 7 C2.66 7 3.32 7 4 7 C4.19335938 7.71027344 4.38671875 8.42054688 4.5859375 9.15234375 C4.84632812 10.07144531 5.10671875 10.99054688 5.375 11.9375 C5.63023438 12.85402344 5.88546875 13.77054688 6.1484375 14.71484375 C6.76660104 17.16745087 6.76660104 17.16745087 9 18 C9 18.66 9 19.32 9 20 C9.66 20 10.32 20 11 20 C11.66 21.98 12.32 23.96 13 26 C6.11800381 21.41200254 2.13563096 14.2847663 0.40234375 6.21875 C0.17044053 4.15448473 0.06920325 2.07609757 0 0 Z " fill="#47A7F1" transform="translate(89,122)"/>
<path d="M0 0 C0.78375 0.00451172 1.5675 0.00902344 2.375 0.01367188 C4.29170014 0.02535907 6.20836048 0.04329092 8.125 0.0625 C7.795 0.7225 7.465 1.3825 7.125 2.0625 C-1.09768934 3.29011278 -9.57484476 3.21495183 -17.875 3.0625 C-12.4144346 -0.57787693 -6.34392333 -0.06989068 0 0 Z " fill="#46A8F2" transform="translate(106.875,205.9375)"/>
<path d="M0 0 C0.66 0.33 1.32 0.66 2 1 C0 4 0 4 -3 5 C-3.61875 5.94875 -4.2375 6.8975 -4.875 7.875 C-7.07364891 11.10830722 -8.6286448 12.18465489 -12 14 C-13.75149165 15.58245275 -13.75149165 15.58245275 -15 17 C-15 13.4909896 -14.02377547 12.34674307 -11.77734375 9.76171875 C-8.14801261 6.16429382 -4.05324766 3.10093122 0 0 Z " fill="#43A8EF" transform="translate(90,59)"/>
<path d="M0 0 C-3.66610857 1.89164506 -7.42462673 3.40374235 -11.26171875 4.91015625 C-13.10711697 5.64463001 -14.94313711 6.40306142 -16.76953125 7.18359375 C-17.64996094 7.55613281 -18.53039062 7.92867187 -19.4375 8.3125 C-20.64212891 8.83263672 -20.64212891 8.83263672 -21.87109375 9.36328125 C-24 10 -24 10 -27 9 C-9.48160535 -0.30100334 -9.48160535 -0.30100334 0 0 Z " fill="#499FEB" transform="translate(119,49)"/>
<path d="M0 0 C0 5.48146213 -1.50487644 11.17781816 -5 15.4375 C-5.99 16.2109375 -5.99 16.2109375 -7 17 C-8.00844855 17.99147946 -9.00989327 18.99020365 -10 20 C-8.07969811 13.0262721 -5.22193403 5.22193403 0 0 Z " fill="#4DAAF6" transform="translate(73,76)"/>
<path d="M0 0 C6.19518473 0.41588046 11.26689311 1.60251894 17 4 C17 4.66 17 5.32 17 6 C10.80759538 5.31195504 4.98044406 3.71951285 -1 2 C-0.67 1.34 -0.34 0.68 0 0 Z " fill="#429EE9" transform="translate(138,49)"/>
<path d="M0 0 C0.99 0 1.98 0 3 0 C3.33 1.65 3.66 3.3 4 5 C4.99 4.67 5.98 4.34 7 4 C7.66 5.65 8.32 7.3 9 9 C8.34 9.66 7.68 10.32 7 11 C4.03 8.03 1.06 5.06 -2 2 C-1.34 1.34 -0.68 0.68 0 0 Z " fill="#44AEF6" transform="translate(88,171)"/>
<path d="M0 0 C1.32 0.33 2.64 0.66 4 1 C4 3.64 4 6.28 4 9 C3.34 9 2.68 9 2 9 C1.67 9.99 1.34 10.98 1 12 C-1.31 12.33 -3.62 12.66 -6 13 C-6.33 11.68 -6.66 10.36 -7 9 C-5.865625 9.020625 -4.73125 9.04125 -3.5625 9.0625 C-0.18424326 9.41577477 -0.18424326 9.41577477 1 8 C1.24733137 3.85723125 1.24733137 3.85723125 0 0 Z " fill="#65C0F7" transform="translate(148,114)"/>
<path d="M0 0 C0.99 0.33 1.98 0.66 3 1 C4.1577506 4.47325181 4.06866652 7.36067448 4 11 C6.64 11.33 9.28 11.66 12 12 C12 12.33 12 12.66 12 13 C5.25 13.125 5.25 13.125 3 12 C2.40644386 9.35139573 2.25790731 6.70802678 2 4 C1.34 4 0.68 4 0 4 C0 6.31 0 8.62 0 11 C-0.99 11.495 -0.99 11.495 -2 12 C-1.34 8.04 -0.68 4.08 0 0 Z " fill="#53A4F0" transform="translate(73,31)"/>
<path d="M0 0 C6.68128839 6.68128839 6.60268094 15.01236892 7 24 C6.67 24 6.34 24 6 24 C5.67 20.04 5.34 16.08 5 12 C4.34 12 3.68 12 3 12 C2.01 8.04 1.02 4.08 0 0 Z " fill="#499BEA" transform="translate(162,98)"/>
<path d="M0 0 C1.27730293 3.83190879 0.46581574 4.89276565 -1.1875 8.5 C-1.61417969 9.4590625 -2.04085937 10.418125 -2.48046875 11.40625 C-4.04410287 14.075281 -5.41227495 15.35981453 -8 17 C-8.3125 14.875 -8.3125 14.875 -8 12 C-6.80975269 10.48806423 -5.61090716 8.97872658 -4.3125 7.55859375 C-2.38821874 5.27350976 -1.22452168 2.70683741 0 0 Z " fill="#58BAF2" transform="translate(163,130)"/>
<path d="M0 0 C1.1446875 0.3403125 1.1446875 0.3403125 2.3125 0.6875 C2.3125 1.0175 2.3125 1.3475 2.3125 1.6875 C0.6625 1.6875 -0.9875 1.6875 -2.6875 1.6875 C-2.6875 3.9975 -2.6875 6.3075 -2.6875 8.6875 C-1.0375 9.0175 0.6125 9.3475 2.3125 9.6875 C2.3125 10.0175 2.3125 10.3475 2.3125 10.6875 C-0.5625 10.875 -0.5625 10.875 -3.6875 10.6875 C-5.84252531 7.45496204 -6.15606135 6.43599077 -5.6875 2.6875 C-3.93031165 -0.08700791 -3.30350824 -0.38412887 0 0 Z " fill="#C1EFFE" transform="translate(145.6875,113.3125)"/>
<path d="M0 0 C0 0.66 0 1.32 0 2 C-1.32 2 -2.64 2 -4 2 C-4 2.66 -4 3.32 -4 4 C-2.02 4 -0.04 4 2 4 C2.33 4.66 2.66 5.32 3 6 C-0.3 5.67 -3.6 5.34 -7 5 C-7.33 3.68 -7.66 2.36 -8 1 C-5.07175348 0.02391783 -3.04386724 -0.08226668 0 0 Z " fill="#4EA3EB" transform="translate(68,43)"/>
<path d="M0 0 C2.95514876 2.75134539 5.1524809 5.39733775 7 9 C7 9.99 7 10.98 7 12 C4.46414701 10.98565881 3.21863205 10.34981128 1.75 8 C1 6 1 6 1 4 C0.68521554 2.66216607 0.35412344 1.32796291 0 0 Z " fill="#4187D0" transform="translate(184,77)"/>
<path d="M0 0 C0.66 0.33 1.32 0.66 2 1 C2 1.99 2 2.98 2 4 C4.97 4.495 4.97 4.495 8 5 C7.01 6.485 7.01 6.485 6 8 C4.68 8 3.36 8 2 8 C1.67 7.34 1.34 6.68 1 6 C-0.65 6.33 -2.3 6.66 -4 7 C-3.525625 6.21625 -3.05125 5.4325 -2.5625 4.625 C-1.66101977 3.11051322 -0.78820515 1.5764103 0 0 Z " fill="#36AFF4" transform="translate(60,68)"/>
<path d="M0 0 C0.66 0 1.32 0 2 0 C2.28571429 7.42857143 2.28571429 7.42857143 0 11 C-0.66 11 -1.32 11 -2 11 C-2.33 9.02 -2.66 7.04 -3 5 C-2.34 5 -1.68 5 -1 5 C-0.67 3.35 -0.34 1.7 0 0 Z " fill="#4DAAF4" transform="translate(75,49)"/>
<path d="M0 0 C3.04474365 0.32916148 4.63608594 0.67130343 6.9375 2.75 C8 5 8 5 7.1875 7.75 C6.795625 8.4925 6.40375 9.235 6 10 C5.34 9.67 4.68 9.34 4 9 C4 7.68 4 6.36 4 5 C2.08140833 2.26780807 2.08140833 2.26780807 0 0 Z " fill="#44ABF3" transform="translate(112,198)"/>
<path d="M0 0 C0.99 0 1.98 0 3 0 C5.15502531 3.23253796 5.46856135 4.25150923 5 8 C3.5 9.8125 3.5 9.8125 2 11 C1.34 10.67 0.68 10.34 0 10 C0.33 9.67 0.66 9.34 1 9 C1.30523962 4.34911285 1.30523962 4.34911285 0 0 Z " fill="#5FBEF5" transform="translate(114,113)"/>
<path d="M0 0 C2.475 0.495 2.475 0.495 5 1 C4.01 1.33 3.02 1.66 2 2 C2 2.99 2 3.98 2 5 C3.32 5.33 4.64 5.66 6 6 C5.67 7.32 5.34 8.64 5 10 C0.07692308 5.69230769 0.07692308 5.69230769 -0.3125 2.1875 C-0.209375 1.465625 -0.10625 0.74375 0 0 Z " fill="#48A7F2" transform="translate(77,159)"/>
<path d="M0 0 C5.26053037 -0.31563182 8.44573816 0.33409063 13 3 C12.67 3.99 12.34 4.98 12 6 C11.34 6 10.68 6 10 6 C10 5.01 10 4.02 10 3 C6.7 2.34 3.4 1.68 0 1 C0 0.67 0 0.34 0 0 Z " fill="#54A5F1" transform="translate(158,207)"/>
<path d="M0 0 C1.32 0 2.64 0 4 0 C4.33 0.99 4.66 1.98 5 3 C4.01 3.66 3.02 4.32 2 5 C1.27034634 7.56282742 1.27034634 7.56282742 1 10 C0.67 10 0.34 10 0 10 C0 6.7 0 3.4 0 0 Z " fill="#53B6F5" transform="translate(164,120)"/>
<path d="M0 0 C1.9375 1.0625 1.9375 1.0625 4 3 C4.75 6.6875 4.75 6.6875 5 10 C3.02 8.68 1.04 7.36 -1 6 C-0.34 5.34 0.32 4.68 1 4 C0.6814823 1.89179203 0.6814823 1.89179203 0 0 Z " fill="#3DA3EA" transform="translate(180,72)"/>
<path d="M0 0 C2.375 -0.1875 2.375 -0.1875 5 0 C5.66 0.99 6.32 1.98 7 3 C4 5 4 5 1.8125 4.625 C1.214375 4.41875 0.61625 4.2125 0 4 C0 2.66666667 0 1.33333333 0 0 Z " fill="#54AFF9" transform="translate(64,72)"/>
<path d="M0 0 C2.31 0 4.62 0 7 0 C7 0.33 7 0.66 7 1 C5.35 1 3.7 1 2 1 C1.67 3.31 1.34 5.62 1 8 C0.34 8 -0.32 8 -1 8 C-1.125 2.25 -1.125 2.25 0 0 Z " fill="#BDEFFE" transform="translate(124,114)"/>
<path d="M0 0 C0.99 0.33 1.98 0.66 3 1 C1 4 1 4 -1.3828125 4.51171875 C-2.28773437 4.56972656 -3.19265625 4.62773438 -4.125 4.6875 C-5.03507812 4.75324219 -5.94515625 4.81898437 -6.8828125 4.88671875 C-7.93082031 4.94279297 -7.93082031 4.94279297 -9 5 C-9 4.34 -9 3.68 -9 3 C-6.03 3 -3.06 3 0 3 C0 2.01 0 1.02 0 0 Z " fill="#4E9EE7" transform="translate(86,44)"/>
<path d="M0 0 C0.99 0.33 1.98 0.66 3 1 C2.67 1.33 2.34 1.66 2 2 C1.95907063 4.33297433 1.95758277 6.66705225 2 9 C1.01 8.67 0.02 8.34 -1 8 C-0.67 5.36 -0.34 2.72 0 0 Z " fill="#55B9F0" transform="translate(139,114)"/>
<path d="M0 0 C0.66 0 1.32 0 2 0 C1.6875 3.375 1.6875 3.375 1 7 C0.01 7.66 -0.98 8.32 -2 9 C-1.34 6.03 -0.68 3.06 0 0 Z " fill="#4BA9F3" transform="translate(62,97)"/>
<path d="M0 0 C0.33 0 0.66 0 1 0 C1 2.64 1 5.28 1 8 C-0.32 8.33 -1.64 8.66 -3 9 C-2.01 6.03 -1.02 3.06 0 0 Z " fill="#BEF0FE" transform="translate(166,126)"/>
<path d="M0 0 C2.64 1.98 5.28 3.96 8 6 C7.67 6.66 7.34 7.32 7 8 C4.0625 6.25 4.0625 6.25 1 4 C0.67 2.68 0.34 1.36 0 0 Z " fill="#4A9CED" transform="translate(172,64)"/>
<path d="M0 0 C1.134375 0.020625 2.26875 0.04125 3.4375 0.0625 C3.4375 0.7225 3.4375 1.3825 3.4375 2.0625 C2.7775 2.0625 2.1175 2.0625 1.4375 2.0625 C1.1075 2.7225 0.7775 3.3825 0.4375 4.0625 C-0.5525 3.4025 -1.5425 2.7425 -2.5625 2.0625 C-3.2225 1.7325 -3.8825 1.4025 -4.5625 1.0625 C-3.5625 0.0625 -3.5625 0.0625 0 0 Z " fill="#32AEF3" transform="translate(114.5625,50.9375)"/>
</svg>
